<?xml version="1.0" standalone="no"?><!DOCTYPE svg PUBLIC "-//W3C//DTD SVG 1.1//EN" "http://www.w3.org/Graphics/SVG/1.1/DTD/svg11.dtd"><svg t="1702563531773" class="icon" viewBox="0 0 1055 1024" version="1.1" xmlns="http://www.w3.org/2000/svg" p-id="9987" xmlns:xlink="http://www.w3.org/1999/xlink" width="32.96875" height="32"><path d="M666.406788 999.113697a31.030303 31.030303 0 0 1-7.447273-61.626182 355.048727 355.048727 0 0 0 200.424727-93.277091 355.29697 355.29697 0 0 0 111.336728-221.866666 31.030303 31.030303 0 1 1 61.688242 6.826666 417.326545 417.326545 0 0 1-130.699636 260.406303 417.109333 417.109333 0 0 1-235.302788 109.53697zM647.819636 841.231515a31.030303 31.030303 0 0 1-6.578424-61.719273 200.579879 200.579879 0 0 0 108.016485-46.048969 200.890182 200.890182 0 0 0 71.059394-134.516364 31.030303 31.030303 0 0 1 61.750303 6.17503 262.950788 262.950788 0 0 1-92.904727 175.910788 262.640485 262.640485 0 0 1-141.343031 60.198788zM223.169939 310.923636l351.076849 351.107879 109.723151-109.723151L332.893091 201.231515l-109.723152 109.723152z m-87.753697 0l197.476849-197.445818L771.723636 552.308364l-197.476848 197.476848L135.416242 310.954667zM552.308364 157.354667l175.538424 175.538424 43.876848-43.876849-175.538424-175.538424L552.339394 157.323636z m-87.753697 0L596.185212 25.693091l263.292121 263.323151-131.630545 131.630546-263.292121-263.292121zM113.477818 596.185212l175.538424 175.538424 43.876849-43.876848-175.538424-175.538424-43.876849 43.876848z m-87.784727 0l131.661576-131.630545 263.292121 263.292121-131.630546 131.630545-263.323151-263.292121z" fill="#1F2325" p-id="9988"></path><path d="M292.89503 636.183273l-43.876848-43.876849 103.641212-103.641212 43.876848 43.907879zM530.369939 398.739394l-43.876848-43.907879 103.641212-103.641212L633.949091 295.098182z" fill="#1F2325" p-id="9989"></path></svg>