<?xml version="1.0" standalone="no"?><!DOCTYPE svg PUBLIC "-//W3C//DTD SVG 1.1//EN" "http://www.w3.org/Graphics/SVG/1.1/DTD/svg11.dtd"><svg t="1702563071307" class="icon" viewBox="0 0 1024 1024" version="1.1" xmlns="http://www.w3.org/2000/svg" p-id="9001" xmlns:xlink="http://www.w3.org/1999/xlink" width="32" height="32"><path d="M896 213.546667a42.666667 42.666667 0 0 1 42.666667 42.666666v540.373334a21.333333 21.333333 0 0 1-12.928 19.626666l-267.541334 114.666667a42.666667 42.666667 0 0 1-35.904-1.066667l-220.586666-110.293333a42.666667 42.666667 0 0 0-35.904-1.066667L115.072 925.909333A21.333333 21.333333 0 0 1 85.333333 906.282667V304.768a42.666667 42.666667 0 1 1 85.333334 0v472.149333a21.333333 21.333333 0 0 0 29.738666 19.605334l168.170667-72.064a42.666667 42.666667 0 0 1 35.904 1.066666l220.586667 110.293334a42.666667 42.666667 0 0 0 35.904 1.066666l179.434666-77.013333a21.333333 21.333333 0 0 0 12.928-19.584V256.213333a42.666667 42.666667 0 0 1 42.666667-42.666666z m-202.986667-95.872c99.968 99.968 99.989333 262.037333 0.021334 362.026666l-120.682667 120.661334a85.397333 85.397333 0 0 1-120.704 0l-120.682667-120.661334c-99.968-99.989333-99.946667-262.058667 0.021334-362.026666 99.968-99.968 262.058667-99.968 362.026666 0zM512 127.957333a170.666667 170.666667 0 0 0-120.661333 291.370667l90.496 90.538667c16.64 16.661333 43.669333 16.661333 60.330666 0l90.496-90.538667A170.666667 170.666667 0 0 0 512 127.957333zM512 256a42.666667 42.666667 0 1 1 0 85.333333 42.666667 42.666667 0 0 1 0-85.333333z" fill="#303C51" p-id="9002"></path></svg>