<?xml version="1.0" standalone="no"?><!DOCTYPE svg PUBLIC "-//W3C//DTD SVG 1.1//EN" "http://www.w3.org/Graphics/SVG/1.1/DTD/svg11.dtd"><svg t="1719130394634" class="icon" viewBox="0 0 1024 1024" version="1.1" xmlns="http://www.w3.org/2000/svg" p-id="4287" width="64" height="64" xmlns:xlink="http://www.w3.org/1999/xlink"><path d="M512 1023.886222C229.262222 1023.886222 0.113778 794.709333 0.113778 512 0.113778 229.290667 229.262222 0.113778 512 0.113778 794.709333 0.113778 1023.886222 229.290667 1023.886222 512c0 282.709333-229.176889 511.886222-511.886222 511.886222z" fill="#999999" p-id="4288"></path><path d="M768.113778 879.160889l-147.598222-78.222222a64.085333 64.085333 0 0 1-33.109334-50.830223 63.800889 63.800889 0 0 1 24.177778-55.552c55.239111-43.406222 70.741333-139.036444 70.741333-189.155555v-134.940445c0-46.933333-81.834667-124.928-174.222222-124.928-90.709333 0-177.351111 79.018667-177.351111 124.928v134.968889c0 50.801778 22.983111 146.005333 76.629333 188.956445a63.829333 63.829333 0 0 1-9.528889 106.097778l-143.36 77.653333A445.411556 445.411556 0 0 0 512 959.914667c95.317333 0 183.495111-30.008889 256.113778-80.782223z" fill="#FFFFFF" p-id="4289"></path></svg>